<?xml version="1.0" encoding="UTF-8"?>
<!DOCTYPE svg PUBLIC "-//W3C//DTD SVG 1.1//EN" "http://www.w3.org/Graphics/SVG/1.1/DTD/svg11.dtd">
<!-- Creator: CorelDRAW 2020 (64 Bit) -->
<svg xmlns="http://www.w3.org/2000/svg" xml:space="preserve" width="80.8835mm" height="74.3595mm" version="1.1" style="shape-rendering:geometricPrecision; text-rendering:geometricPrecision; image-rendering:optimizeQuality; fill-rule:evenodd; clip-rule:evenodd"
viewBox="0 0 610.22 561"
 xmlns:xlink="http://www.w3.org/1999/xlink"
 xmlns:xodm="http://www.corel.com/coreldraw/odm/2003">
 <defs>
  <style type="text/css">
   <![CDATA[
    .fil0 {fill:#292929}
   ]]>
  </style>
 </defs>
 <g id="Camada_x0020_1">
  <metadata id="CorelCorpID_0Corel-Layer"/>
  <path class="fil0" d="M350.6 452.03c-15.85,52.98 -89.25,34.91 -78.61,-19.37 3.81,-19.42 26.12,-34.94 49.46,-29.02 17.94,4.55 35.96,25.61 29.15,48.39zm-50.59 -291.39c20.68,-6.36 46.99,6.02 51.18,22.86 2.77,11.12 -4.23,54.52 -4.46,69.58 -0.36,23.1 -2.39,50.33 -5.06,72.72 -2.93,24.6 1.6,45.8 -21.79,53.73 -20.26,6.87 -36.62,-7.82 -39.06,-32.69l-11.3 -141.59c-2.24,-28.49 -0.21,-35.18 30.49,-44.62zm308.78 362.83c5.88,-20.53 -7.77,-43.31 -15.66,-56.53l-52.44 -93.25c-8.21,-14.67 -17.77,-32 -25.82,-47 -32.14,-59.93 -72.28,-126.46 -104.49,-187.03l-51.9 -93.62c-8.42,-14.48 -14.86,-33.11 -31.42,-41.61 -20.48,-10.51 -43.44,-0.68 -52.83,13.1l-26.41 46.46c-20.89,34.12 -61.06,105.8 -79.25,139.48 -40.57,75.1 -91.98,157.57 -132.36,233.23 -16.49,30.9 -51.54,70.59 -28.7,104.16 13.5,19.85 34.97,18.59 53.97,18.61l437.22 -0.01c39.44,-0.03 75.06,7.96 96.62,-12.19 8.49,-7.94 9.61,-10.28 13.48,-23.8z"/>
 </g>
</svg>
