<?xml version="1.0" encoding="UTF-8"?>
<!DOCTYPE svg PUBLIC "-//W3C//DTD SVG 1.1//EN" "http://www.w3.org/Graphics/SVG/1.1/DTD/svg11.dtd">
<!-- Creator: CorelDRAW 2020 (64 Bit) -->
<svg xmlns="http://www.w3.org/2000/svg" xml:space="preserve" width="69.0254mm" height="79.8112mm" version="1.1" style="shape-rendering:geometricPrecision; text-rendering:geometricPrecision; image-rendering:optimizeQuality; fill-rule:evenodd; clip-rule:evenodd"
viewBox="0 0 449.54 519.79"
 xmlns:xlink="http://www.w3.org/1999/xlink"
 xmlns:xodm="http://www.corel.com/coreldraw/odm/2003">
 <defs>
  <style type="text/css">
   <![CDATA[
    .fil0 {fill:#292929}
   ]]>
  </style>
 </defs>
 <g id="Camada_x0020_1">
  <metadata id="CorelCorpID_0Corel-Layer"/>
  <path class="fil0" d="M41.43 292.67c0,-51.28 19.67,-94.46 54.36,-129.11 24.55,-24.52 55.13,-40.79 89.57,-48.5 139.67,-31.28 270.66,106.78 207.35,256.02 -24.19,57.02 -91.74,108.04 -161.75,107.92 -39.67,-0.07 -49.79,-3.87 -84.96,-18.06 -37.49,-15.13 -72.71,-54.03 -88.7,-90.06 -11.97,-26.98 -15.86,-43.92 -15.86,-78.2zm150.12 0.62l15.95 0.15 -0.05 -12.13 -15.79 -0.09 -0.11 12.07zm0.06 31.24l15.7 0.3 -0.03 -12.83 -15.12 -0.14 -0.56 12.67zm99.15 -20.98c-5.02,-35.28 16.4,-36.68 18.56,-16.84 3.95,36.27 -15.95,35.18 -18.56,16.84zm-16.57 -8.46c0,18.95 5.92,30.18 25.69,30.68 19.56,0.49 25.8,-12.65 25.8,-30.68 0,-18.42 -6.7,-31.03 -25.77,-31.07 -18.36,-0.04 -25.72,13.56 -25.72,31.07zm-36.39 19.58c-4.64,-7.55 -4.78,-11.01 -4.63,-22.02 0.16,-11.54 1.32,-11.98 6.75,-18.37 11.7,0.23 12.69,7.02 12.69,18.4 0,12.3 0.25,13.63 -4.52,22.09l-10.29 -0.1zm-3.84 -49.52c-23.51,9.5 -19.78,47.96 -6,57.24 14.34,9.65 49.23,3.5 39.7,-37.29 -1.78,-7.63 -3.05,-14 -10.47,-17.69 -6.52,-3.24 -15.74,-5.29 -23.23,-2.27zm-91.76 25.11c0,-8.41 1.67,-17.25 11.13,-15.69 7.74,1.28 7.88,10.84 7.88,18.1 0,34.78 -19.01,25.15 -19.01,8.47l0 -10.88zm-16.15 0c0,19.49 2.34,35.65 25.08,36.06 20.9,0.38 26.38,-14 26.38,-33.64 0,-39.68 -51.46,-37.52 -51.46,-2.42zm-82.59 -155.62c5.3,-1.44 5.69,-3.97 9.2,-8.1 2.72,-3.21 4.95,-5.37 8.74,-8.21 6.45,-4.85 12.18,-10.39 18.35,-15.48 15.47,-12.79 38.3,-21.45 41.53,-26.62 -1.79,-4 -1.88,-3.13 -5.87,-5.55 -33.15,-20.14 -75.6,3.06 -76.99,38.15 -0.25,6.28 -0.23,20.75 5.04,25.83zm49.26 124.18c8.25,-5.51 5.82,-5.25 18.48,-5.25l166.95 0c76.9,0.04 75.15,-7.92 75.15,29.44l-0.11 36.31c-0.62,20.36 1.07,17.12 -38.76,17.13 -51.75,0.01 -177.2,1.74 -218.96,-0.81 -4.5,-6.85 -3.09,-6.61 -3.09,-16.35l0.33 -60.46zm-27 54.42c3.09,35.25 22.25,69.68 45.56,94.17 48.1,50.52 132.05,61.77 193.33,26.62 23.14,-13.27 27.9,-20.81 42.69,-37.15 24.92,-27.53 42.02,-71.99 36.38,-120.09 -10.28,-87.55 -87.71,-150.18 -178.11,-141.09 -21.04,2.11 -42.82,11.42 -59.23,20.3 -52.26,28.3 -86.68,87.92 -80.61,157.23zm198.09 -275.85c0.9,-13.84 24.7,4.93 30.34,-16.34 2.48,-9.34 -2.65,-18.75 -9.99,-20.01 -12.48,-2.15 -47.96,-0.23 -62.86,-0.26 -10.17,-0.02 -55.42,-2.29 -60.97,2.44 -6,5.1 -6.13,18.34 -1.37,24.11 6.04,7.32 16.57,5.02 26.6,5.4l0.08 40.4c-27.12,1.76 -69.71,23.86 -89.73,37.36 -22.52,15.19 -48.87,42.39 -61.51,64.4 -16.9,29.43 -28.35,55.58 -32.92,93.81 -4.38,36.65 1.42,79.09 14.04,108.85 19.25,45.4 36.55,65.29 67.44,90.98 13.93,11.58 19.54,16.63 37.61,25.35 7.16,3.45 12.85,6.58 21.44,10.12 73.15,30.12 163.95,15.89 220.47,-31.43 12.84,-10.75 39.75,-37.6 46.66,-47.79 16.45,-24.25 31.21,-54.96 37.01,-89.07 13.42,-79.01 -14.31,-147.13 -53.5,-190.1 -6.56,-7.19 -10.12,-12.17 -15.77,-16.89 -29.19,-24.36 -64.01,-45.84 -103.17,-53.84 -7.33,-1.5 -9.26,0.39 -9.87,-5.81l-0.01 -31.67z"/>
 </g>
</svg>
