<?xml version="1.0" encoding="UTF-8"?>
<!DOCTYPE svg PUBLIC "-//W3C//DTD SVG 1.1//EN" "http://www.w3.org/Graphics/SVG/1.1/DTD/svg11.dtd">
<!-- Creator: CorelDRAW 2020 (64 Bit) -->
<svg xmlns="http://www.w3.org/2000/svg" xml:space="preserve" width="81.5293mm" height="74.0992mm" version="1.1" style="shape-rendering:geometricPrecision; text-rendering:geometricPrecision; image-rendering:optimizeQuality; fill-rule:evenodd; clip-rule:evenodd"
viewBox="0 0 773.78 703.26"
 xmlns:xlink="http://www.w3.org/1999/xlink"
 xmlns:xodm="http://www.corel.com/coreldraw/odm/2003">
 <defs>
  <style type="text/css">
   <![CDATA[
    .fil0 {fill:#292929}
   ]]>
  </style>
 </defs>
 <g id="Camada_x0020_1">
  <metadata id="CorelCorpID_0Corel-Layer"/>
  <path class="fil0" d="M157.99 395.87c-4.22,-4.06 -27.98,-3.08 -35.54,-1.86 -8.48,1.36 -5.08,12.23 -5.56,32.36 -0.62,25.83 0.32,51.73 0.31,77.54 -0.02,45.72 -5.38,108.03 10.48,144.23 7.95,18.14 21.5,31.02 37.34,40.29 20.73,12.13 34.69,13.56 64.73,12.91 50.83,-1.1 104.28,-0.87 153.4,1.21 50.79,2.15 102.81,-1.22 153.34,-1.31 28.89,-0.05 45.11,0.78 67.13,-10.33 64.1,-32.33 51.62,-113.33 51.7,-181.71 0.03,-25.83 0.1,-51.71 -0.01,-77.54 -0.18,-43.61 9.75,-37.09 -41.46,-37.09 -4.51,17.37 -1.68,97.45 -1.67,121.68 0.02,55.52 14.88,128.28 -42.79,141.75 -15.09,3.52 -160.42,1.53 -182.75,1.55 -40.96,0.02 -82.57,-0.96 -123.4,-0.24 -51.03,0.89 -85.61,5.65 -100.52,-39.58 -5.69,-17.26 -3.07,-142.48 -2.81,-166.91 0.11,-10.27 2.94,-52.14 -1.92,-56.93zm149.32 199.6c7.7,0 15.38,0.07 23.07,0.15 11.14,0.12 15.55,2.92 11.83,-31.64 -24.91,-1.94 -98.59,-0.66 -128.33,-0.66 -8.96,0 -6.42,18.53 -5.02,32.1l98.45 0.06zm255.83 -109.27c-6.87,-3.67 -77.49,-1.74 -84.83,-1.76 -49.35,-0.15 -50.02,-5.09 -49.79,14.15 0.13,11.12 0.56,10.15 4.12,17.18 12.38,2.35 119.61,2.71 131.56,0.39 0.71,-9 2.04,-22.9 -1.06,-29.97zm-186.7 -0.22c-8.48,-4.04 -112.87,-1.41 -137.88,-1.52 -31.02,-0.13 -30.9,-3.93 -30.77,15.89 0.12,19.76 -4,16.49 32.53,16.38 15.26,-0.04 30.57,-0.05 45.83,0 21.56,0.07 73.49,2.65 91.58,-0.61l-1.29 -30.15zm17.82 78.2c-0.41,4.01 -1.1,22.85 -0.43,26.06 1.66,7.91 9.78,5.32 19.24,5.25l126.94 -0.03c16.61,0.03 30.35,6.45 24.71,-26.53 -1.23,-7.22 0.78,-5.84 -19.42,-5.64 -33.46,0.34 -131.91,-2.43 -151.05,0.89zm-275.2 -231.22c5.46,2.25 35.95,2.73 39.21,-0.86 3.65,-4.03 1.61,-114.01 1.62,-124.26 0.03,-34.72 -3.21,-49.39 13.08,-72.73 5.59,-8 15.26,-13.63 25.91,-16.48 14.97,-4 22.06,-2.76 39.02,-3.24l-0.38 -41.96c-57.11,-2.53 -101.04,17.04 -117.2,74.28 -3.97,14.05 -5.55,176.25 -1.27,185.25zm415.08 -218.08c25.07,2.93 45.35,0.19 60.49,15.42 15.31,15.39 18,30.03 17.94,56.4 -0.04,19.62 -0.85,138.02 0.95,147.17l40.46 0.18c3.3,-13.24 1.19,-77.67 1.31,-96.24 0.2,-32.41 1.68,-61.64 -3.98,-91.49 -9.43,-49.7 -69.9,-83.18 -117.92,-71.97l0.76 40.54zm-275.82 1.32c3.55,13.19 24.98,9.81 38.41,9.72l190.39 0.01c22.46,0.09 26.77,1.03 26.91,-22.01 0.4,-68.4 -6.83,-31.59 -48.99,-46.86 -26.31,-9.53 -30.57,-35.35 -46.01,-49.12 -10.68,-9.53 -22.6,-7.95 -39.48,-7.69 -51.44,0.78 -29.74,52.21 -83.63,58.86 -12.79,1.58 -33.04,-3.41 -37.03,10.23 -1.43,4.91 -1.9,41.91 -0.56,46.86zm-35.63 260.87c10.01,0 15.02,-0.23 19.93,-8.37 15.88,-26.36 51.26,-105.42 65.87,-126.74l22.63 160.77c1.17,11.9 2.11,28.82 12.44,33.19 6.34,2.69 14.47,1.63 18.93,-1.94 9.22,-7.38 22.65,-71.84 29.44,-83.22 10.32,1.39 10.77,17.04 24.23,28.41 14.82,12.51 24.8,0.41 32.6,-8.79l34.67 -42.97c4.5,-5.72 6.49,-10.02 12.51,-12.39 12.88,9.33 36.2,74.42 51.32,78.36 15.4,4.01 19.42,-9 26.24,-16.16l105.38 0.47c6.34,7.9 20.59,38.4 54.21,31.75 59.3,-11.72 49.72,-92.32 -2.66,-95.76 -38.88,-2.55 -45.88,24.59 -52.91,36.92l-91.67 0.13c-34.16,-0.02 -20.78,2.2 -33.49,5.41 -23.49,-28.96 -34.75,-80.87 -57.74,-76.21 -17.27,3.5 -52.67,62.51 -65.66,69.61 -13.32,-5.78 -23.58,-48.84 -46.22,-38.13 -14.61,6.91 -18.68,42.48 -23.08,52.77 -3.15,7.35 0.62,3.53 -5.14,6.16l-15.21 -102.62c-1.72,-13.78 -4.45,-65.87 -16.16,-72.33 -7.46,-4.11 -17.11,-2.23 -21.85,2.75l-40.23 76.2c-12.08,22.76 -26.8,54.54 -39.76,76.32l-123.75 0.06c-7.29,-1.61 -4.09,-14.13 -20.07,-26.02 -9.19,-6.84 -18.98,-10.98 -34.46,-9.61 -57.21,5.05 -57.39,91 -0.2,96.17 40.51,3.66 47.16,-32.44 54.74,-34.22l125.16 0.01z"/>
 </g>
</svg>
