<?xml version="1.0" encoding="UTF-8"?>
<!DOCTYPE svg PUBLIC "-//W3C//DTD SVG 1.1//EN" "http://www.w3.org/Graphics/SVG/1.1/DTD/svg11.dtd">
<!-- Creator: CorelDRAW 2020 (64 Bit) -->
<svg xmlns="http://www.w3.org/2000/svg" xml:space="preserve" width="67.2135mm" height="72.1102mm" version="1.1" style="shape-rendering:geometricPrecision; text-rendering:geometricPrecision; image-rendering:optimizeQuality; fill-rule:evenodd; clip-rule:evenodd"
viewBox="0 0 355.65 381.56"
 xmlns:xlink="http://www.w3.org/1999/xlink"
 xmlns:xodm="http://www.corel.com/coreldraw/odm/2003">
 <defs>
  <style type="text/css">
   <![CDATA[
    .fil0 {fill:#292929}
   ]]>
  </style>
 </defs>
 <g id="Camada_x0020_1">
  <metadata id="CorelCorpID_0Corel-Layer"/>
  <path class="fil0" d="M183.09 129.06c-4.7,-18.5 -3.28,-30.93 -18.63,-39.37 -14.54,-7.99 -32.03,-2.88 -39.76,9.6 -8.38,13.51 -3.78,34.17 -0.62,49.4 3.35,16.12 7.36,29.81 9.82,47.22 7.63,53.91 18.94,52.91 61.98,53.06 18.64,0.06 37.41,-0.58 56.02,-1.03 15.74,-0.38 11.26,-0.31 18.47,9.98 3.57,5.1 7.4,12.76 10.39,18.09 6.85,12.17 35.71,66.22 42.63,72.41 11.47,10.25 34.35,3.17 32.1,-16 -1.25,-10.68 -14.17,-30.79 -18.81,-38.57 -13.43,-22.52 -28.58,-50.01 -41.85,-73.17 -9.44,-16.47 -13.27,-19.49 -38.02,-19.27 -16.61,0.15 -40.71,1.3 -56.56,-0.24 -2.52,-3.65 -9.7,-30.65 -9.38,-37.88 21.67,-1.11 75.08,9.84 71.91,-20.46 -1.53,-14.61 -19.21,-13.34 -33.49,-13.33 -15.54,0.01 -30.68,-0.14 -46.2,-0.45zm-89.4 -84.48c3.35,19.53 20.57,37.27 43.92,33.96 52.83,-7.5 40.11,-85.8 -10.09,-77.99 -23.92,3.72 -37.02,25.38 -33.82,44.03zm-60.06 207.31c0,-30.23 16.67,-56.22 34.68,-71.52 16.29,-13.84 23.03,-12.96 33.5,-19.5 13.69,-8.54 7.19,-30.22 -11,-28.83 -23.07,1.76 -49.63,27.17 -62.48,43.66 -14.91,19.15 -28.33,46.11 -28.33,77.17 0,52.19 32.89,95.32 70.16,113.81 23.84,11.82 44.05,17.37 75.02,13.82 26.84,-3.08 49.41,-8.74 68.35,-22.48 18.04,-13.09 30.16,-28.2 41.43,-49.93 26.32,-50.73 -10.21,-52.23 -20.08,-37.9 -9.68,14.05 -7.83,34.68 -35.31,56.12 -45.14,35.22 -93.15,32.13 -136.2,-3.91 -17,-14.24 -29.75,-41.13 -29.75,-70.52z"/>
 </g>
</svg>
