<?xml version="1.0" encoding="UTF-8"?>
<!DOCTYPE svg PUBLIC "-//W3C//DTD SVG 1.1//EN" "http://www.w3.org/Graphics/SVG/1.1/DTD/svg11.dtd">
<!-- Creator: CorelDRAW 2020 (64 Bit) -->
<svg xmlns="http://www.w3.org/2000/svg" xml:space="preserve" width="79.7779mm" height="79.7583mm" version="1.1" style="shape-rendering:geometricPrecision; text-rendering:geometricPrecision; image-rendering:optimizeQuality; fill-rule:evenodd; clip-rule:evenodd"
viewBox="0 0 492.58 492.46"
 xmlns:xlink="http://www.w3.org/1999/xlink"
 xmlns:xodm="http://www.corel.com/coreldraw/odm/2003">
 <defs>
  <style type="text/css">
   <![CDATA[
    .fil0 {fill:#292929}
   ]]>
  </style>
 </defs>
 <g id="Camada_x0020_1">
  <metadata id="CorelCorpID_0Corel-Layer"/>
  <path class="fil0" d="M239.27 323.36c17.1,-4.36 32.55,7.97 35.29,20.93 8.42,39.79 -47.95,50.41 -56.79,14.21 -4.17,-17.08 8.31,-31.77 21.5,-35.14zm1.68 -207.5c15.49,-4.58 29.82,9.8 31.09,23.6 1.38,15.05 0.02,92.93 0.18,115.82 0.07,10.49 0.48,16.92 -3.68,24.49 -12.73,23.22 -46.23,14.06 -47.93,-11.44 -1.49,-22.44 -0.09,-88.3 -0.15,-115.9 -0.05,-20.13 2.57,-31.28 20.49,-36.58zm249.74 157.15c2.96,-12.94 2.14,-44.33 -0.35,-57.15 -1.64,-8.45 -2.04,-17.34 -4.27,-26.4 -1.87,-7.62 -4.5,-15.75 -7.14,-23.55 -2.86,-8.41 -6.64,-14.74 -9.1,-21.4 -2.88,-7.81 -6.27,-14.83 -10.26,-20.74l-26.41 -35.04c-16.14,-21.05 -10.09,-14.47 -30.41,-31.22 -38.04,-31.37 -75.55,-48.52 -128.56,-55.76 -37.61,-5.14 -77.21,1.5 -108.86,12.65 -18.46,6.51 -24.85,9.95 -42.02,19.55 -17.65,9.87 -38.93,25.12 -52.42,39.99 -10.79,11.9 -18.8,20.81 -27.62,33.86 -63.36,93.66 -56.21,209.94 15.43,297.19 15.44,18.81 46.57,44.58 67.47,55.64 30.09,15.91 56.37,25.79 92.06,30.37 35.32,4.53 81.17,-2.21 109.95,-12.25 36.62,-12.77 84.23,-45.55 107.96,-76.38 23.1,-30.01 30.68,-42.73 43.7,-79.35 9.17,-25.79 6.66,-31.76 10.85,-50.02z"/>
 </g>
</svg>
