<?xml version="1.0" encoding="UTF-8"?>
<!DOCTYPE svg PUBLIC "-//W3C//DTD SVG 1.1//EN" "http://www.w3.org/Graphics/SVG/1.1/DTD/svg11.dtd">
<!-- Creator: CorelDRAW 2020 (64 Bit) -->
<svg xmlns="http://www.w3.org/2000/svg" xml:space="preserve" width="66.1666mm" height="66.2515mm" version="1.1" style="shape-rendering:geometricPrecision; text-rendering:geometricPrecision; image-rendering:optimizeQuality; fill-rule:evenodd; clip-rule:evenodd"
viewBox="0 0 527.65 528.32"
 xmlns:xlink="http://www.w3.org/1999/xlink"
 xmlns:xodm="http://www.corel.com/coreldraw/odm/2003">
 <defs>
  <style type="text/css">
   <![CDATA[
    .fil0 {fill:#292929}
   ]]>
  </style>
 </defs>
 <g id="Camada_x0020_1">
  <metadata id="CorelCorpID_0Corel-Layer"/>
  <path class="fil0" d="M111.9 44.56l196.71 0.72 -0.17 437.21c-19.24,3.65 -75.82,0.77 -98.97,0.8 -30.17,0.04 -68.52,2.03 -97.91,-0.33l0.33 -438.39zm122.11 191.71c-17.15,4.8 -24.07,18.86 -20.39,35.23 3.16,14.02 18.17,25.97 36.83,21.24 34.02,-8.62 25.6,-68.25 -16.45,-56.47zm118.59 -139.79c0,-12.47 -4.05,-19.66 7.79,-19.72 66.83,-0.32 55.75,-2.94 55.78,19.72 0.2,135.29 1.34,278.63 -0.01,413.12 -0.07,7.1 -0.65,11.63 1.38,17.95l109.48 0.13c0.53,-10.72 1.28,-34.3 -0.52,-44.41l-65.5 -0.43 -0.13 -65.05c-0.03,-120.42 -1.65,-252.79 0.02,-371.72 0.13,-9.28 2.13,-13.32 -7.03,-13.32l-99.62 -0.09 -0.57 -31.97c-91.72,-0.57 -194.88,-1.26 -286.07,0.12l-0.39 23.11c-0.01,150.87 1.48,309.21 -0.17,459.14l-66.16 0.35 -0.9 33.65c0.02,1.98 0.06,3.88 0.33,5.83l0.98 4.69c110.98,0.43 240.27,1.71 349.86,-0.61 1.69,-3.36 1.44,4.26 1.44,-4.05l0 -426.45z"/>
 </g>
</svg>
