<?xml version="1.0" encoding="UTF-8"?>
<!DOCTYPE svg PUBLIC "-//W3C//DTD SVG 1.1//EN" "http://www.w3.org/Graphics/SVG/1.1/DTD/svg11.dtd">
<!-- Creator: CorelDRAW 2020 (64 Bit) -->
<svg xmlns="http://www.w3.org/2000/svg" xml:space="preserve" width="88.885mm" height="88.7353mm" version="1.1" style="shape-rendering:geometricPrecision; text-rendering:geometricPrecision; image-rendering:optimizeQuality; fill-rule:evenodd; clip-rule:evenodd"
viewBox="0 0 1233.92 1231.84"
 xmlns:xlink="http://www.w3.org/1999/xlink"
 xmlns:xodm="http://www.corel.com/coreldraw/odm/2003">
 <defs>
  <style type="text/css">
   <![CDATA[
    .fil0 {fill:#292929}
   ]]>
  </style>
 </defs>
 <g id="Camada_x0020_1">
  <metadata id="CorelCorpID_0Corel-Layer"/>
  <path class="fil0" d="M393.1 106.32c105.15,-15.55 196.36,19.59 257.67,70.66 63.99,53.31 103.22,114.89 121.59,214.32 18.26,98.82 -25.54,206.41 -71.6,259.2 -50.84,58.27 -109.78,106.19 -211.65,120.81 -89.23,12.81 -196.89,-12.9 -259.16,-69.53 -59.84,-54.42 -108.96,-112.71 -122.95,-213.31 -26.78,-192.52 104.07,-355.24 286.09,-382.16zm391.24 603.69c8.71,-13.17 22.62,-31.03 31.6,-45.79 28.05,-46.11 55.92,-114.62 60.52,-171.27 8.09,-99.77 -4.6,-181.64 -44.69,-255.55 -22.07,-40.69 -32.51,-56.52 -63.49,-91.53 -76.29,-86.21 -185.94,-145.86 -317.45,-145.86 -146.53,0 -243.58,47.47 -322.9,128.45 -71.58,73.08 -127.93,169.75 -127.93,304.93 0,140.67 50.37,247 146.62,333.99 14.71,13.29 27.78,23.37 42.84,34.32 81.74,59.45 186.82,84.27 301.66,74.28 130.79,-11.37 204.8,-85.27 218.67,-88.83l335.59 334.36c19.86,18.81 36.4,37.46 56.49,56.61 62.15,59.26 49.43,66.61 79.47,36.12 13.2,-13.4 46.6,-42.75 52.58,-54.82 -8.82,-16.2 -93.26,-93.75 -112.6,-113.72 -18.13,-18.71 -39.63,-37.58 -56.87,-56.27l-280.11 -279.42z"/>
 </g>
</svg>
